<svg
      width="24"
      height="24"
      fill="none"
      stroke="currentColor"
      strokeWidth="1.3"
      strokeLinecap="round"
      strokeLinejoin="round"
      xmlns="http://www.w3.org/2000/svg"
    >
      <path d="M12 15.5a3.5 3.5 0 1 0 0-7 3.5 3.5 0 0 0 0 7z" />
      <path d="M19.14 12.94c.04-.3.06-.61.06-.94s-.02-.64-.06-.94l2.04-1.6a.5.5 0 0 0 .12-.64l-1.93-3.34a.5.5 0 0 0-.61-.22l-2.4.96a7 7 0 0 0-1.62-.94l-.36-2.52a.5.5 0 0 0-.49-.42h-3.86a.5.5 0 0 0-.49.42l-.36 2.52a7 7 0 0 0-1.62.94l-2.4-.96a.5.5 0 0 0-.61.22l-1.93 3.34a.5.5 0 0 0 .12.64l2.04 1.6c-.04.3-.06.61-.06.94s.02.64.06.94l-2.04 1.6a.5.5 0 0 0-.12.64l1.93 3.34a.5.5 0 0 0 .61.22l2.4-.96c.5.39 1.03.72 1.62.94l.36 2.52a.5.5 0 0 0 .49.42h3.86a.5.5 0 0 0 .49-.42l.36-2.52c.59-.22 1.12-.55 1.62-.94l2.4.96a.5.5 0 0 0 .61-.22l1.93-3.34a.5.5 0 0 0-.12-.64l-2.04-1.6z" />
    </svg>